<svg xmlns="http://www.w3.org/2000/svg" width="300" height="300" viewBox="0 0 300 300"><g data-name="adobe audition" transform="translate(-67.5 -67.5)"><rect width="300" height="300" fill="#00e4bb" transform="translate(67.5 67.5)"/><rect width="273.616" height="273.616" fill="#002620" transform="translate(80.733 80.733)"/><path fill="#00e4bb" d="M163.229,252.381l-10.849,36.9c-.164,1.315-.74,1.726-1.808,1.726H132.407c-1.233,0-1.562-.658-1.233-2.137,9.616-32.466,25.808-86.63,37.233-123.37.493-2.137,1.068-4.274,1.4-11.671a1.087,1.087,0,0,1,1.068-1.233h24.575c.9,0,1.068.247,1.4,1.068,13.151,43.562,27.616,91.479,41.1,135.452.329,1.315,0,1.89-1.068,1.89H216.9c-.9,0-1.233-.411-1.562-1.315L204,252.381ZM199.147,231.5c-3.534-14.219-12.247-42.9-15.863-57.781h-.164c-2.63,13.973-9.945,37.973-15.288,57.781Z" transform="translate(-11.318 -15.155)"/><path fill="#00e4bb" fill-rule="evenodd" d="M348.47,278.341c0,1.4.164,5.753.575,12.822,0,.822-.082,1.233-.9,1.4-10.932,4.11-23.014,8.466-38.3,8.466-18.74,0-36.74-7.233-36.74-36.082V199.026c0-1.068.411-1.644,1.479-1.644h19.644c1.068,0,1.479.658,1.479,1.644v63.205c0,12.164,4.6,18.74,17.425,18.74a35.928,35.928,0,0,0,12.9-2.3V198.944c0-1.068.411-1.644,1.479-1.644H346.99c1.233,0,1.479.658,1.479,1.644Z" transform="translate(-36.614 -23.115)"/></g></svg>